<svg xmlns="http://www.w3.org/2000/svg" viewBox="0 0 1262.31 1406.52"><defs><style>.cls-1,.cls-10,.cls-11,.cls-12,.cls-13,.cls-7,.cls-8,.cls-9{opacity:0.75;}.cls-2{fill:#fcee21;}.cls-3{fill:#fff;}.cls-4{fill:#d9e021;}.cls-5{fill:#f7931e;}.cls-6{fill:aqua;}.cls-10,.cls-11,.cls-7,.cls-8,.cls-9{fill:none;stroke-width:2.31px;}.cls-12,.cls-13,.cls-7{stroke:#000;}.cls-10,.cls-11,.cls-12,.cls-13,.cls-7,.cls-8,.cls-9{stroke-miterlimit:10;}.cls-8{stroke:#7ac943;}.cls-9{stroke:#ff54ac;}.cls-10{stroke:blue;}.cls-11{stroke:#ff931e;}.cls-12,.cls-13{stroke-width:0.55px;}.cls-13{fill:#ff54ac;}</style></defs><g id="Layer_2" data-name="Layer 2"><g id="Layer_1-2" data-name="Layer 1"><g class="cls-1"><rect class="cls-2" x="2.31" y="146.52" width="123.69" height="123.69"/><path d="M124.84,147.68V269.05H3.47V147.68H124.84m2.32-2.32H1.16v126h126v-126Z"/></g><g class="cls-1"><rect class="cls-3" x="92.31" y="524.52" width="123.69" height="123.69"/><path d="M214.84,525.68V647.05H93.47V525.68H214.84m2.32-2.32h-126v126h126v-126Z"/></g><g class="cls-1"><rect class="cls-3" x="92.31" y="1244.52" width="123.69" height="123.69"/><path d="M214.84,1245.68v121.37H93.47V1245.68H214.84m2.32-2.32h-126v126h126v-126Z"/></g><g class="cls-1"><rect class="cls-3" x="1.66" y="865.86" width="125" height="125"/><path d="M126.15,866.36v124H2.16v-124h124m1-1H1.16v126h126v-126Z"/></g><g class="cls-1"><rect class="cls-3" x="1010.31" y="146.52" width="123.69" height="123.69"/><path d="M1132.84,147.68V269.05H1011.47V147.68h121.37m2.32-2.32h-126v126h126v-126Z"/></g><g class="cls-1"><rect class="cls-3" x="1100.31" y="524.52" width="123.69" height="123.69"/><path d="M1222.84,525.68V647.05H1101.47V525.68h121.37m2.32-2.32h-126v126h126v-126Z"/></g><g class="cls-1"><rect class="cls-3" x="1100.31" y="1244.52" width="123.69" height="123.69"/><path d="M1222.84,1245.68v121.37H1101.47V1245.68h121.37m2.32-2.32h-126v126h126v-126Z"/></g><g class="cls-1"><rect class="cls-3" x="1010.31" y="866.52" width="123.69" height="123.69"/><path d="M1132.84,867.68V989.05H1011.47V867.68h121.37m2.32-2.32h-126v126h126v-126Z"/></g><g class="cls-1"><rect class="cls-4" x="505.76" y="145.95" width="123.69" height="123.69"/><path d="M628.29,147.1V268.48H506.91V147.1H628.29m2.31-2.31h-126v126h126v-126Z"/></g><g class="cls-1"><rect class="cls-3" x="595.76" y="523.95" width="123.69" height="123.69"/><path d="M718.29,525.1V646.48H596.91V525.1H718.29m2.31-2.31h-126v126h126v-126Z"/></g><g class="cls-1"><rect class="cls-4" x="595.76" y="1243.95" width="123.69" height="123.69"/><path d="M718.29,1245.1v121.38H596.91V1245.1H718.29m2.31-2.31h-126v126h126v-126Z"/></g><g class="cls-1"><rect class="cls-3" x="505.76" y="865.95" width="123.69" height="123.69"/><path d="M628.29,867.1V988.48H506.91V867.1H628.29m2.31-2.31h-126v126h126v-126Z"/></g><g class="cls-1"><rect class="cls-5" x="2.31" y="380.52" width="123.69" height="123.69"/><path d="M124.84,381.68V503.05H3.47V381.68H124.84m2.32-2.32H1.16v126h126v-126Z"/></g><g class="cls-1"><rect class="cls-3" x="380.31" y="290.52" width="123.69" height="123.69"/><path d="M502.84,291.68V413.05H381.47V291.68H502.84m2.32-2.32h-126v126h126v-126Z"/></g><g class="cls-1"><rect class="cls-6" x="1100.31" y="290.52" width="123.69" height="123.69"/><path d="M1222.84,291.68V413.05H1101.47V291.68h121.37m2.32-2.32h-126v126h126v-126Z"/></g><g class="cls-1"><rect class="cls-3" x="722.31" y="380.52" width="123.69" height="123.69"/><path d="M844.84,381.68V503.05H723.47V381.68H844.84m2.32-2.32h-126v126h126v-126Z"/></g><g class="cls-1"><rect class="cls-6" x="2.31" y="866.52" width="123.69" height="123.69"/><path d="M124.84,867.68V989.05H3.47V867.68H124.84m2.32-2.32H1.16v126h126v-126Z"/></g><g class="cls-1"><rect class="cls-3" x="380.31" y="740.52" width="123.69" height="123.69"/><path d="M502.84,741.68V863.05H381.47V741.68H502.84m2.32-2.32h-126v126h126v-126Z"/></g><g class="cls-1"><rect class="cls-5" x="1100.31" y="740.52" width="123.69" height="123.69"/><path d="M1222.84,741.68V863.05H1101.47V741.68h121.37m2.32-2.32h-126v126h126v-126Z"/></g><g class="cls-1"><rect class="cls-3" x="722.31" y="866.52" width="123.69" height="123.69"/><path d="M844.84,867.68V989.05H723.47V867.68H844.84m2.32-2.32h-126v126h126v-126Z"/></g><g class="cls-1"><rect class="cls-3" x="2.31" y="1100.52" width="123.69" height="123.69"/><path d="M124.84,1101.68v121.37H3.47V1101.68H124.84m2.32-2.32H1.16v126h126v-126Z"/></g><g class="cls-1"><rect class="cls-3" x="380.31" y="1010.52" width="123.69" height="123.69"/><path d="M502.84,1011.68v121.37H381.47V1011.68H502.84m2.32-2.32h-126v126h126v-126Z"/></g><g class="cls-1"><rect class="cls-3" x="1100.31" y="1010.52" width="123.69" height="123.69"/><path d="M1222.84,1011.68v121.37H1101.47V1011.68h121.37m2.32-2.32h-126v126h126v-126Z"/></g><g class="cls-1"><rect class="cls-3" x="722.31" y="1100.52" width="123.69" height="123.69"/><path d="M844.84,1101.68v121.37H723.47V1101.68H844.84m2.32-2.32h-126v126h126v-126Z"/></g><line class="cls-7" x1="72.66" y1="1098.86" x2="73.16" y2="217.36"/><line class="cls-7" x1="1152.16" y1="1297.36" x2="1152.6" y2="415.54"/><g class="cls-1"><path d="M73.16,433.36c247.51-1.36,525.18-1.22,772.69.43-247.52,1.38-525.18,1.21-772.69-.43Z"/></g><line class="cls-7" x1="379.16" y1="1081.36" x2="1153.16" y2="1081.36"/><line class="cls-7" x1="379.21" y1="360.97" x2="1153.16" y2="361.36"/><line class="cls-7" x1="73.16" y1="1153.36" x2="847" y2="1153.61"/><line class="cls-7" x1="378.68" y1="865.66" x2="1153.15" y2="865.36"/><line class="cls-7" x1="73.16" y1="577.36" x2="721.16" y2="577.36"/><line class="cls-7" x1="73.16" y1="937.36" x2="631.16" y2="937.36"/><line class="cls-7" x1="577.16" y1="217.36" x2="1081.16" y2="217.36"/><line class="cls-7" x1="577.16" y1="937.36" x2="577.16" y2="217.36"/><line class="cls-7" x1="793.16" y1="1225.36" x2="793.16" y2="505.36"/><line class="cls-7" x1="649.16" y1="1297.36" x2="649.16" y2="577.36"/><line class="cls-7" x1="433.16" y1="1009.36" x2="433.16" y2="289.36"/><line class="cls-7" x1="217.16" y1="1297.36" x2="217.16" y2="577.36"/><line class="cls-7" x1="793.16" y1="937.36" x2="1135.16" y2="937.36"/><line class="cls-7" x1="793.16" y1="577.36" x2="1153.16" y2="577.36"/><line class="cls-7" x1="145.16" y1="1297.36" x2="649.16" y2="1297.36"/><line class="cls-7" x1="721.16" y1="1297.36" x2="1225.16" y2="1297.36"/><line class="cls-7" x1="1.16" y1="217.36" x2="505.16" y2="217.36"/><line class="cls-7" x1="1081.16" y1="937.36" x2="1081.16" y2="217.36"/><line class="cls-7" x1="145.16" y1="1297.36" x2="145.16" y2="523.36"/><line class="cls-7" x1="505.16" y1="145.36" x2="1135.16" y2="145.36"/><line class="cls-7" x1="91.16" y1="1369.36" x2="721.16" y2="1369.36"/><line class="cls-7" x1="91.16" y1="649.36" x2="721.16" y2="649.36"/><line class="cls-7" x1="433.16" y1="1009.36" x2="1153.16" y2="1009.36"/><line class="cls-7" x1="1.16" y1="991.36" x2="1.16" y2="217.36"/><line class="cls-7" x1="1225.16" y1="1369.36" x2="1225.16" y2="523.36"/><line class="cls-7" x1="127.16" y1="937.36" x2="127.16" y2="145.36"/><line class="cls-7" x1="721.16" y1="1369.36" x2="721.16" y2="523.36"/><line class="cls-7" x1="505.16" y1="1081.36" x2="505.16" y2="361.36"/><line class="cls-7" x1="1009.16" y1="937.36" x2="1009.16" y2="145.36"/><line class="cls-7" x1="217.16" y1="361.36" x2="289.16" y2="361.36"/><line class="cls-7" x1="793.16" y1="289.36" x2="865.16" y2="289.36"/><line class="cls-7" x1="865.16" y1="793.36" x2="937.16" y2="793.36"/><line class="cls-7" x1="289.16" y1="721.36" x2="361.16" y2="721.36"/><line class="cls-7" x1="361.16" y1="1225.36" x2="433.16" y2="1225.36"/><line class="cls-7" x1="937.16" y1="1153.36" x2="1009.16" y2="1153.36"/><line class="cls-7" x1="217.16" y1="361.36" x2="217.16" y2="289.36"/><line class="cls-7" x1="793.16" y1="289.36" x2="793.16" y2="217.36"/><line class="cls-7" x1="289.16" y1="793.36" x2="289.16" y2="721.36"/><line class="cls-7" x1="937.16" y1="793.36" x2="937.16" y2="721.36"/><line class="cls-7" x1="433.16" y1="1297.36" x2="433.16" y2="1225.36"/><line class="cls-7" x1="1009.16" y1="1225.36" x2="1009.16" y2="1153.36"/><line class="cls-7" x1="865.12" y1="793.23" x2="937.12" y2="721.23"/><line class="cls-7" x1="289.12" y1="793.23" x2="361.12" y2="721.23"/><line class="cls-7" x1="217.12" y1="289.23" x2="289.12" y2="361.23"/><line class="cls-7" x1="937.12" y1="1153.23" x2="1009.12" y2="1225.23"/><line class="cls-7" x1="361.12" y1="1225.23" x2="433.12" y2="1297.23"/><line class="cls-7" x1="793.12" y1="217.23" x2="865.12" y2="289.23"/><line class="cls-7" x1="865.16" y1="226.36" x2="937.16" y2="226.36"/><line class="cls-7" x1="865.16" y1="235.36" x2="937.16" y2="235.36"/><line class="cls-7" x1="865.16" y1="244.36" x2="937.16" y2="244.36"/><line class="cls-7" x1="865.16" y1="253.36" x2="937.16" y2="253.36"/><line class="cls-7" x1="865.16" y1="262.36" x2="937.16" y2="262.36"/><line class="cls-8" x1="865.16" y1="271.36" x2="937.16" y2="271.36"/><line class="cls-7" x1="865.16" y1="280.36" x2="937.16" y2="280.36"/><line class="cls-7" x1="865.16" y1="217.36" x2="937.16" y2="217.36"/><line class="cls-7" x1="865.16" y1="289.36" x2="937.16" y2="289.36"/><line class="cls-7" x1="865.16" y1="658.36" x2="937.16" y2="658.36"/><line class="cls-7" x1="865.16" y1="667.36" x2="937.16" y2="667.36"/><line class="cls-7" x1="865.16" y1="676.36" x2="937.16" y2="676.36"/><line class="cls-8" x1="865.16" y1="685.36" x2="937.16" y2="685.36"/><line class="cls-7" x1="865.16" y1="694.36" x2="937.16" y2="694.36"/><line class="cls-7" x1="865.16" y1="703.36" x2="937.16" y2="703.36"/><line class="cls-8" x1="865.16" y1="712.36" x2="937.16" y2="712.36"/><line class="cls-7" x1="865.16" y1="649.36" x2="937.16" y2="649.36"/><line class="cls-7" x1="865.16" y1="721.36" x2="937.16" y2="721.36"/><line class="cls-7" x1="289.16" y1="298.36" x2="361.16" y2="298.36"/><line class="cls-7" x1="289.16" y1="307.36" x2="361.16" y2="307.36"/><line class="cls-8" x1="289.16" y1="316.36" x2="361.16" y2="316.36"/><line class="cls-8" x1="289.16" y1="325.36" x2="361.16" y2="325.36"/><line class="cls-8" x1="289.16" y1="334.36" x2="361.16" y2="334.36"/><line class="cls-8" x1="289.16" y1="343.36" x2="361.16" y2="343.36"/><line class="cls-7" x1="289.16" y1="352.36" x2="361.16" y2="352.36"/><line class="cls-7" x1="289.16" y1="289.36" x2="361.16" y2="289.36"/><line class="cls-7" x1="289.16" y1="361.36" x2="361.16" y2="361.36"/><line class="cls-7" x1="217.16" y1="658.36" x2="289.16" y2="658.36"/><line class="cls-8" x1="217.16" y1="667.36" x2="289.16" y2="667.36"/><line class="cls-7" x1="217.16" y1="676.36" x2="289.16" y2="676.36"/><line class="cls-8" x1="217.16" y1="685.36" x2="289.16" y2="685.36"/><line class="cls-7" x1="217.16" y1="694.36" x2="289.16" y2="694.36"/><line class="cls-7" x1="217.16" y1="703.36" x2="289.16" y2="703.36"/><line class="cls-7" x1="217.16" y1="712.36" x2="289.16" y2="712.36"/><line class="cls-7" x1="217.16" y1="649.36" x2="289.16" y2="649.36"/><line class="cls-7" x1="217.16" y1="721.36" x2="289.16" y2="721.36"/><line class="cls-7" x1="289.16" y1="1162.36" x2="361.16" y2="1162.36"/><line class="cls-8" x1="289.16" y1="1171.36" x2="361.16" y2="1171.36"/><line class="cls-7" x1="289.16" y1="1180.36" x2="361.16" y2="1180.36"/><line class="cls-8" x1="289.16" y1="1189.36" x2="361.16" y2="1189.36"/><line class="cls-7" x1="289.16" y1="1198.36" x2="361.16" y2="1198.36"/><line class="cls-7" x1="289.16" y1="1207.36" x2="361.16" y2="1207.36"/><line class="cls-7" x1="289.16" y1="1216.36" x2="361.16" y2="1216.36"/><line class="cls-7" x1="289.16" y1="1153.36" x2="361.16" y2="1153.36"/><line class="cls-7" x1="289.16" y1="1225.36" x2="361.16" y2="1225.36"/><line class="cls-8" x1="1009.16" y1="1234.36" x2="1081.16" y2="1234.36"/><line class="cls-7" x1="1009.16" y1="1243.36" x2="1081.16" y2="1243.36"/><line class="cls-8" x1="1009.16" y1="1252.36" x2="1081.16" y2="1252.36"/><line class="cls-7" x1="1009.16" y1="1261.36" x2="1081.16" y2="1261.36"/><line class="cls-7" x1="1009.16" y1="1270.36" x2="1081.16" y2="1270.36"/><line class="cls-7" x1="1009.16" y1="1279.36" x2="1081.16" y2="1279.36"/><line class="cls-7" x1="1009.16" y1="1288.36" x2="1081.16" y2="1288.36"/><line class="cls-7" x1="1009.16" y1="1225.36" x2="1081.16" y2="1225.36"/><line class="cls-7" x1="1009.16" y1="1297.36" x2="1081.16" y2="1297.36"/><line class="cls-7" x1="10.16" y1="1297.36" x2="10.16" y2="1225.36"/><line class="cls-7" x1="19.16" y1="1297.36" x2="19.16" y2="1225.36"/><line class="cls-7" x1="28.16" y1="1297.36" x2="28.16" y2="1225.36"/><line class="cls-7" x1="37.16" y1="1297.36" x2="37.16" y2="1225.36"/><line class="cls-7" x1="46.16" y1="1297.36" x2="46.16" y2="1225.36"/><line class="cls-7" x1="55.16" y1="1297.36" x2="55.16" y2="1225.36"/><line class="cls-8" x1="64.16" y1="1297.36" x2="64.16" y2="1225.36"/><line class="cls-7" x1="1.16" y1="1297.36" x2="1.16" y2="1225.36"/><line class="cls-8" x1="73.16" y1="1297.36" x2="73.16" y2="1225.36"/><line class="cls-7" x1="10.16" y1="217.36" x2="10.16" y2="145.36"/><line class="cls-7" x1="19.16" y1="217.36" x2="19.16" y2="145.36"/><line class="cls-8" x1="28.16" y1="217.36" x2="28.16" y2="145.36"/><line class="cls-7" x1="37.16" y1="217.36" x2="37.16" y2="145.36"/><line class="cls-7" x1="46.16" y1="217.36" x2="46.16" y2="145.36"/><line class="cls-7" x1="55.16" y1="217.36" x2="55.16" y2="145.36"/><line class="cls-8" x1="64.16" y1="217.36" x2="64.16" y2="145.36"/><line class="cls-7" x1="1.16" y1="217.36" x2="1.16" y2="145.36"/><line class="cls-7" x1="73.16" y1="217.36" x2="73.16" y2="145.36"/><line class="cls-7" x1="1162.16" y1="289.36" x2="1162.16" y2="217.36"/><line class="cls-8" x1="1171.16" y1="289.36" x2="1171.16" y2="217.36"/><line class="cls-7" x1="1180.16" y1="289.36" x2="1180.16" y2="217.36"/><line class="cls-7" x1="1189.16" y1="289.36" x2="1189.16" y2="217.36"/><line class="cls-7" x1="1198.16" y1="289.36" x2="1198.16" y2="217.36"/><line class="cls-7" x1="1207.16" y1="289.36" x2="1207.16" y2="217.36"/><line class="cls-7" x1="1216.16" y1="289.36" x2="1216.16" y2="217.36"/><line class="cls-7" x1="1153.16" y1="289.36" x2="1153.16" y2="217.36"/><line class="cls-7" x1="1225.16" y1="289.36" x2="1225.16" y2="217.36"/><line class="cls-7" x1="1018.16" y1="217.36" x2="1018.16" y2="145.36"/><line class="cls-7" x1="1027.16" y1="217.36" x2="1027.16" y2="145.36"/><line class="cls-7" x1="1036.16" y1="217.36" x2="1036.16" y2="145.36"/><line class="cls-7" x1="1045.16" y1="217.36" x2="1045.16" y2="145.36"/><line class="cls-7" x1="1054.16" y1="217.36" x2="1054.16" y2="145.36"/><line class="cls-7" x1="1063.16" y1="217.36" x2="1063.16" y2="145.36"/><line class="cls-8" x1="1072.16" y1="217.36" x2="1072.16" y2="145.36"/><line class="cls-7" x1="1009.16" y1="217.36" x2="1009.16" y2="145.36"/><line class="cls-7" x1="1081.16" y1="217.36" x2="1081.16" y2="145.36"/><line class="cls-7" x1="226.16" y1="1297.36" x2="226.16" y2="1225.36"/><line class="cls-7" x1="235.16" y1="1297.36" x2="235.16" y2="1225.36"/><line class="cls-7" x1="244.16" y1="1297.36" x2="244.16" y2="1225.36"/><line class="cls-7" x1="253.16" y1="1297.36" x2="253.16" y2="1225.36"/><line class="cls-7" x1="262.16" y1="1297.36" x2="262.16" y2="1225.36"/><line class="cls-7" x1="271.16" y1="1297.36" x2="271.16" y2="1225.36"/><line class="cls-8" x1="280.16" y1="1297.36" x2="280.16" y2="1225.36"/><line class="cls-7" x1="217.16" y1="1297.36" x2="217.16" y2="1225.36"/><line class="cls-7" x1="289.16" y1="1297.36" x2="289.16" y2="1225.36"/><line class="cls-7" x1="1162.16" y1="1369.36" x2="1162.16" y2="1297.36"/><line class="cls-7" x1="1171.16" y1="1369.36" x2="1171.16" y2="1297.36"/><line class="cls-8" x1="1180.16" y1="1369.36" x2="1180.16" y2="1297.36"/><line class="cls-7" x1="1189.16" y1="1369.36" x2="1189.16" y2="1297.36"/><line class="cls-7" x1="1198.16" y1="1369.36" x2="1198.16" y2="1297.36"/><line class="cls-7" x1="1207.16" y1="1369.36" x2="1207.16" y2="1297.36"/><line class="cls-8" x1="1216.16" y1="1369.36" x2="1216.16" y2="1297.36"/><line class="cls-7" x1="1153.16" y1="1369.36" x2="1153.16" y2="1297.36"/><line class="cls-7" x1="1225.16" y1="1369.36" x2="1225.16" y2="1297.36"/><line class="cls-7" x1="442.16" y1="217.36" x2="442.16" y2="145.36"/><line class="cls-7" x1="451.16" y1="217.36" x2="451.16" y2="145.36"/><line class="cls-8" x1="460.16" y1="217.36" x2="460.16" y2="145.36"/><line class="cls-7" x1="469.16" y1="217.36" x2="469.16" y2="145.36"/><line class="cls-8" x1="478.16" y1="217.36" x2="478.16" y2="145.36"/><line class="cls-7" x1="487.16" y1="217.36" x2="487.16" y2="145.36"/><line class="cls-8" x1="496.16" y1="217.36" x2="496.16" y2="145.36"/><line class="cls-7" x1="433.16" y1="217.36" x2="433.16" y2="145.36"/><line class="cls-7" x1="505.16" y1="217.36" x2="505.16" y2="145.36"/><line class="cls-7" x1="10.16" y1="577.36" x2="10.16" y2="505.36"/><line class="cls-7" x1="19.16" y1="577.36" x2="19.16" y2="505.36"/><line class="cls-7" x1="28.16" y1="577.36" x2="28.16" y2="505.36"/><line class="cls-7" x1="37.16" y1="577.36" x2="37.16" y2="505.36"/><line class="cls-7" x1="46.16" y1="577.36" x2="46.16" y2="505.36"/><line class="cls-8" x1="55.16" y1="577.36" x2="55.16" y2="505.36"/><line class="cls-7" x1="64.16" y1="577.36" x2="64.16" y2="505.36"/><line class="cls-7" x1="1.16" y1="577.36" x2="1.16" y2="505.36"/><line class="cls-7" x1="73.16" y1="577.36" x2="73.16" y2="505.36"/><line class="cls-8" x1="10.16" y1="937.36" x2="10.16" y2="865.36"/><line class="cls-7" x1="19.16" y1="937.36" x2="19.16" y2="865.36"/><line class="cls-7" x1="28.16" y1="937.36" x2="28.16" y2="865.36"/><line class="cls-7" x1="37.16" y1="937.36" x2="37.16" y2="865.36"/><line class="cls-7" x1="46.16" y1="937.36" x2="46.16" y2="865.36"/><line class="cls-7" x1="55.16" y1="937.36" x2="55.16" y2="865.36"/><line class="cls-7" x1="64.16" y1="937.36" x2="64.16" y2="865.36"/><line class="cls-7" x1="1.16" y1="937.36" x2="1.16" y2="865.36"/><line class="cls-7" x1="73.16" y1="937.36" x2="73.16" y2="865.36"/><line class="cls-7" x1="1090.16" y1="649.36" x2="1090.16" y2="577.36"/><line class="cls-7" x1="1099.16" y1="649.36" x2="1099.16" y2="577.36"/><line class="cls-7" x1="1108.16" y1="649.36" x2="1108.16" y2="577.36"/><line class="cls-7" x1="1117.16" y1="649.36" x2="1117.16" y2="577.36"/><line class="cls-7" x1="1126.16" y1="649.36" x2="1126.16" y2="577.36"/><line class="cls-8" x1="1135.16" y1="649.36" x2="1135.16" y2="577.36"/><line class="cls-7" x1="1144.16" y1="649.36" x2="1144.16" y2="577.36"/><line class="cls-7" x1="1081.16" y1="649.36" x2="1081.16" y2="577.36"/><line class="cls-7" x1="1153.16" y1="649.36" x2="1153.16" y2="577.36"/><line class="cls-7" x1="802.16" y1="505.36" x2="802.16" y2="433.36"/><line class="cls-7" x1="811.16" y1="505.36" x2="811.16" y2="433.36"/><line class="cls-8" x1="820.16" y1="505.36" x2="820.16" y2="433.36"/><line class="cls-7" x1="829.16" y1="505.36" x2="829.16" y2="433.36"/><line class="cls-7" x1="838.16" y1="505.36" x2="838.16" y2="433.36"/><line class="cls-7" x1="847.16" y1="505.36" x2="847.16" y2="433.36"/><line class="cls-7" x1="856.16" y1="505.36" x2="856.16" y2="433.36"/><line class="cls-7" x1="793.16" y1="505.36" x2="793.16" y2="433.36"/><line class="cls-7" x1="865.16" y1="505.36" x2="865.16" y2="433.36"/><line class="cls-7" x1="370.16" y1="433.36" x2="370.16" y2="361.36"/><line class="cls-7" x1="379.16" y1="433.36" x2="379.16" y2="361.36"/><line class="cls-7" x1="388.16" y1="433.36" x2="388.16" y2="361.36"/><line class="cls-8" x1="397.16" y1="433.36" x2="397.16" y2="361.36"/><line class="cls-7" x1="406.16" y1="433.36" x2="406.16" y2="361.36"/><line class="cls-7" x1="415.16" y1="433.36" x2="415.16" y2="361.36"/><line class="cls-7" x1="424.16" y1="433.36" x2="424.16" y2="361.36"/><line class="cls-7" x1="361.16" y1="433.36" x2="361.16" y2="361.36"/><line class="cls-7" x1="433.16" y1="433.36" x2="433.16" y2="361.36"/><line class="cls-7" x1="442.16" y1="865.36" x2="442.16" y2="793.36"/><line class="cls-8" x1="451.16" y1="865.36" x2="451.16" y2="793.36"/><line class="cls-7" x1="460.16" y1="865.36" x2="460.16" y2="793.36"/><line class="cls-7" x1="469.16" y1="865.36" x2="469.16" y2="793.36"/><line class="cls-7" x1="478.16" y1="865.36" x2="478.16" y2="793.36"/><line class="cls-7" x1="487.16" y1="865.36" x2="487.16" y2="793.36"/><line class="cls-7" x1="496.16" y1="865.36" x2="496.16" y2="793.36"/><line class="cls-7" x1="433.16" y1="865.36" x2="433.16" y2="793.36"/><line class="cls-7" x1="505.16" y1="865.36" x2="505.16" y2="793.36"/><line class="cls-7" x1="370.16" y1="1081.36" x2="370.16" y2="1009.36"/><line class="cls-7" x1="379.16" y1="1081.36" x2="379.16" y2="1009.36"/><line class="cls-7" x1="388.16" y1="1081.36" x2="388.16" y2="1009.36"/><line class="cls-7" x1="397.16" y1="1081.36" x2="397.16" y2="1009.36"/><line class="cls-8" x1="406.16" y1="1081.36" x2="406.16" y2="1009.36"/><line class="cls-8" x1="415.16" y1="1081.36" x2="415.16" y2="1009.36"/><line class="cls-8" x1="424.16" y1="1081.36" x2="424.16" y2="1009.36"/><line class="cls-7" x1="361.16" y1="1081.36" x2="361.16" y2="1009.36"/><line class="cls-7" x1="433.16" y1="1081.36" x2="433.16" y2="1009.36"/><line class="cls-7" x1="730.16" y1="937.36" x2="730.16" y2="865.36"/><line class="cls-7" x1="739.16" y1="937.36" x2="739.16" y2="865.36"/><line class="cls-7" x1="748.16" y1="937.36" x2="748.16" y2="865.36"/><line class="cls-8" x1="757.16" y1="937.36" x2="757.16" y2="865.36"/><line class="cls-8" x1="766.16" y1="937.36" x2="766.16" y2="865.36"/><line class="cls-7" x1="775.16" y1="937.36" x2="775.16" y2="865.36"/><line class="cls-7" x1="784.16" y1="937.36" x2="784.16" y2="865.36"/><line class="cls-7" x1="721.16" y1="937.36" x2="721.16" y2="865.36"/><line class="cls-7" x1="793.16" y1="937.36" x2="793.16" y2="865.36"/><line class="cls-7" x1="1162.16" y1="937.36" x2="1162.16" y2="865.36"/><line class="cls-7" x1="1171.16" y1="937.36" x2="1171.16" y2="865.36"/><line class="cls-7" x1="1180.16" y1="937.36" x2="1180.16" y2="865.36"/><line class="cls-7" x1="1189.16" y1="937.36" x2="1189.16" y2="865.36"/><line class="cls-7" x1="1198.16" y1="937.36" x2="1198.16" y2="865.36"/><line class="cls-7" x1="1207.16" y1="937.36" x2="1207.16" y2="865.36"/><line class="cls-7" x1="1216.16" y1="937.36" x2="1216.16" y2="865.36"/><line class="cls-7" x1="1153.16" y1="937.36" x2="1153.16" y2="865.36"/><line class="cls-7" x1="1225.16" y1="937.36" x2="1225.16" y2="865.36"/><line class="cls-7" x1="586.16" y1="577.36" x2="586.16" y2="505.36"/><line class="cls-7" x1="595.16" y1="577.36" x2="595.16" y2="505.36"/><line class="cls-8" x1="604.16" y1="577.36" x2="604.16" y2="505.36"/><line class="cls-7" x1="613.16" y1="577.36" x2="613.16" y2="505.36"/><line class="cls-7" x1="622.16" y1="577.36" x2="622.16" y2="505.36"/><line class="cls-7" x1="631.16" y1="577.36" x2="631.16" y2="505.36"/><line class="cls-7" x1="640.16" y1="577.36" x2="640.16" y2="505.36"/><line class="cls-7" x1="577.16" y1="577.36" x2="577.16" y2="505.36"/><line class="cls-7" x1="649.16" y1="577.36" x2="649.16" y2="505.36"/><line class="cls-7" x1="658.16" y1="1369.36" x2="658.16" y2="1297.36"/><line class="cls-8" x1="667.16" y1="1369.36" x2="667.16" y2="1297.36"/><line class="cls-7" x1="676.16" y1="1369.36" x2="676.16" y2="1297.36"/><line class="cls-7" x1="685.16" y1="1369.36" x2="685.16" y2="1297.36"/><line class="cls-7" x1="694.16" y1="1369.36" x2="694.16" y2="1297.36"/><line class="cls-7" x1="703.16" y1="1369.36" x2="703.16" y2="1297.36"/><line class="cls-7" x1="712.16" y1="1369.36" x2="712.16" y2="1297.36"/><line class="cls-7" x1="649.16" y1="1369.36" x2="649.16" y2="1297.36"/><line class="cls-7" x1="721.16" y1="1369.36" x2="721.16" y2="1297.36"/><line class="cls-7" x1="587.6" y1="1008.79" x2="587.6" y2="936.79"/><line class="cls-7" x1="596.6" y1="1008.79" x2="596.6" y2="936.79"/><line class="cls-7" x1="605.6" y1="1008.79" x2="605.6" y2="936.79"/><line class="cls-8" x1="614.6" y1="1008.79" x2="614.6" y2="936.79"/><line class="cls-7" x1="623.6" y1="1008.79" x2="623.6" y2="936.79"/><line class="cls-7" x1="632.6" y1="1008.79" x2="632.6" y2="936.79"/><line class="cls-7" x1="641.6" y1="1008.79" x2="641.6" y2="936.79"/><line class="cls-7" x1="578.6" y1="1008.79" x2="578.6" y2="936.79"/><line class="cls-7" x1="650.6" y1="1008.79" x2="650.6" y2="936.79"/><line class="cls-7" x1="946.16" y1="865.36" x2="946.16" y2="793.36"/><line class="cls-7" x1="955.16" y1="865.36" x2="955.16" y2="793.36"/><line class="cls-7" x1="964.16" y1="865.36" x2="964.16" y2="793.36"/><line class="cls-7" x1="973.16" y1="865.36" x2="973.16" y2="793.36"/><line class="cls-7" x1="982.16" y1="865.36" x2="982.16" y2="793.36"/><line class="cls-7" x1="991.16" y1="865.36" x2="991.16" y2="793.36"/><line class="cls-7" x1="1000.16" y1="865.36" x2="1000.16" y2="793.36"/><line class="cls-7" x1="937.16" y1="865.36" x2="937.16" y2="793.36"/><line class="cls-7" x1="1009.16" y1="865.36" x2="1009.16" y2="793.36"/><line class="cls-7" x1="802.16" y1="1153.36" x2="802.16" y2="1081.36"/><line class="cls-7" x1="811.16" y1="1153.36" x2="811.16" y2="1081.36"/><line class="cls-8" x1="820.16" y1="1153.36" x2="820.16" y2="1081.36"/><line class="cls-7" x1="829.16" y1="1153.36" x2="829.16" y2="1081.36"/><line class="cls-7" x1="838.16" y1="1153.36" x2="838.16" y2="1081.36"/><line class="cls-7" x1="847.16" y1="1153.36" x2="847.16" y2="1081.36"/><line class="cls-7" x1="856.16" y1="1153.36" x2="856.16" y2="1081.36"/><line class="cls-7" x1="793.16" y1="1153.36" x2="793.16" y2="1081.36"/><line class="cls-7" x1="865.16" y1="1153.36" x2="865.16" y2="1081.36"/><line class="cls-8" x1="1090.16" y1="1153.36" x2="1090.16" y2="1081.36"/><line class="cls-7" x1="1099.16" y1="1153.36" x2="1099.16" y2="1081.36"/><line class="cls-7" x1="1108.16" y1="1153.36" x2="1108.16" y2="1081.36"/><line class="cls-7" x1="1117.16" y1="1153.36" x2="1117.16" y2="1081.36"/><line class="cls-8" x1="1126.16" y1="1153.36" x2="1126.16" y2="1081.36"/><line class="cls-7" x1="1135.16" y1="1153.36" x2="1135.16" y2="1081.36"/><line class="cls-7" x1="1144.16" y1="1153.36" x2="1144.16" y2="1081.36"/><line class="cls-7" x1="1081.16" y1="1153.36" x2="1081.16" y2="1081.36"/><line class="cls-7" x1="1153.16" y1="1153.36" x2="1153.16" y2="1081.36"/><line class="cls-7" x1="937.16" y1="361.36" x2="937.16" y2="289.36"/><line class="cls-7" x1="289.16" y1="289.36" x2="289.16" y2="217.36"/><line class="cls-7" x1="289.16" y1="1153.36" x2="289.16" y2="1081.36"/><line class="cls-8" x1="1081.16" y1="1225.36" x2="1081.16" y2="1153.36"/><line class="cls-7" x1="289.16" y1="649.36" x2="289.16" y2="577.36"/><line class="cls-7" x1="865.16" y1="649.36" x2="865.16" y2="577.36"/><line class="cls-7" x1="361.16" y1="145.36" x2="433.16" y2="145.36"/><line class="cls-7" x1="1081.16" y1="217.36" x2="1153.16" y2="217.36"/><line class="cls-7" x1="865.16" y1="505.36" x2="937.16" y2="505.36"/><line class="cls-7" x1="649.16" y1="505.36" x2="721.16" y2="505.36"/><line class="cls-7" x1="73.16" y1="505.36" x2="145.16" y2="505.36"/><line class="cls-7" x1="361.16" y1="793.36" x2="433.16" y2="793.36"/><line class="cls-7" x1="289.16" y1="1009.36" x2="361.16" y2="1009.36"/><line class="cls-7" x1="649.16" y1="937.36" x2="721.16" y2="937.36"/><line class="cls-7" x1="145.16" y1="1225.36" x2="217.16" y2="1225.36"/><line class="cls-7" x1="73.16" y1="1297.36" x2="145.16" y2="1297.36"/><line class="cls-7" x1="721.16" y1="1369.36" x2="793.16" y2="1369.36"/><line class="cls-7" x1="1081.16" y1="1369.36" x2="1153.16" y2="1369.36"/><line class="cls-7" x1="1081.16" y1="937.36" x2="1153.16" y2="937.36"/><line class="cls-7" x1="865.16" y1="1153.36" x2="937.16" y2="1153.36"/><circle class="cls-9" cx="127.16" cy="145.36" r="36"/><circle class="cls-10" cx="1099.16" cy="1369.36" r="36"/><circle class="cls-7" cx="631.16" cy="271.36" r="36"/><circle class="cls-11" cx="379.16" cy="289.36" r="36"/><circle class="cls-10" cx="1135.16" cy="145.36" r="36"/><circle class="cls-9" cx="1153.16" cy="361.36" r="36"/><circle class="cls-7" cx="217.16" cy="523.36" r="36"/><circle class="cls-7" cx="847.16" cy="379.36" r="36"/><circle class="cls-11" cx="847.16" cy="865.36" r="36"/><circle class="cls-9" cx="721.16" cy="649.36" r="36"/><circle class="cls-7" cx="1099.16" cy="523.36" r="36"/><circle class="cls-10" cx="379.16" cy="739.36" r="36"/><circle class="cls-10" cx="73.16" cy="865.36" r="36"/><circle class="cls-7" cx="1099.16" cy="865.36" r="36"/><circle class="cls-9" cx="721.16" cy="1225.36" r="36"/><circle class="cls-11" cx="1225.16" cy="1009.36" r="36"/><circle class="cls-7" cx="505.16" cy="1135.36" r="36"/><circle class="cls-11" cx="91.16" cy="1369.36" r="36"/><circle class="cls-9" cx="127.16" cy="1099.36" r="36"/><circle class="cls-7" cx="73.16" cy="433.36" r="36"/><circle class="cls-7" cx="631.16" cy="865.36" r="36"/><circle class="cls-12" cx="784.59" cy="298.29" r="8.57"/><circle class="cls-13" cx="765.92" cy="316.6" r="8.57"/><circle class="cls-12" cx="747.92" cy="334.6" r="8.57"/><circle class="cls-12" cx="1055.25" cy="1108.45" r="8.57"/><circle class="cls-12" cx="1036.58" cy="1126.75" r="8.57"/><circle class="cls-13" cx="1018.58" cy="1144.75" r="8.57"/><circle class="cls-13" cx="478.71" cy="1180.53" r="8.57"/><circle class="cls-12" cx="460.04" cy="1198.84" r="8.57"/><circle class="cls-12" cx="442.04" cy="1216.84" r="8.57"/><circle class="cls-13" cx="406.71" cy="676.53" r="8.57"/><circle class="cls-12" cx="388.04" cy="694.84" r="8.57"/><circle class="cls-12" cx="370.04" cy="712.84" r="8.57"/><circle class="cls-13" cx="208.71" cy="370.53" r="8.57"/><circle class="cls-12" cx="190.04" cy="388.84" r="8.57"/><circle class="cls-12" cx="172.04" cy="406.84" r="8.57"/><circle class="cls-12" cx="982.86" cy="675.64" r="8.57"/><circle class="cls-13" cx="964.19" cy="693.95" r="8.57"/><circle class="cls-12" cx="946.19" cy="711.95" r="8.57"/><circle class="cls-13" cx="171.37" cy="154.46" r="8.57"/><circle class="cls-12" cx="189.68" cy="173.13" r="8.57"/><circle class="cls-12" cx="207.68" cy="191.13" r="8.57"/><circle class="cls-12" cx="118.02" cy="441.7" r="8.57"/><circle class="cls-12" cx="136.32" cy="460.37" r="8.57"/><circle class="cls-13" cx="154.32" cy="478.37" r="8.57"/><circle class="cls-12" cx="118.02" cy="873.7" r="8.57"/><circle class="cls-12" cx="136.32" cy="892.37" r="8.57"/><circle class="cls-13" cx="154.32" cy="910.37" r="8.57"/><circle class="cls-12" cx="172.02" cy="1089.7" r="8.57"/><circle class="cls-13" cx="190.32" cy="1108.37" r="8.57"/><circle class="cls-12" cx="208.32" cy="1126.37" r="8.57"/><circle class="cls-12" cx="10.02" cy="1323.7" r="8.57"/><circle class="cls-12" cx="28.32" cy="1342.37" r="8.57"/><circle class="cls-13" cx="46.32" cy="1360.37" r="8.57"/><circle class="cls-12" cx="1180.02" cy="153.7" r="8.57"/><circle class="cls-13" cx="1198.32" cy="172.37" r="8.57"/><circle class="cls-12" cx="1216.32" cy="190.37" r="8.57"/><circle class="cls-13" cx="667.02" cy="297.7" r="8.57"/><circle class="cls-12" cx="685.32" cy="316.37" r="8.57"/><circle class="cls-12" cx="703.32" cy="334.37" r="8.57"/><circle class="cls-12" cx="425.02" cy="298.7" r="8.57"/><circle class="cls-12" cx="443.32" cy="317.37" r="8.57"/><circle class="cls-13" cx="461.32" cy="335.37" r="8.57"/><circle class="cls-12" cx="1072.02" cy="315.7" r="8.57"/><circle class="cls-12" cx="1090.32" cy="334.37" r="8.57"/><circle class="cls-13" cx="1108.32" cy="352.37" r="8.57"/><circle class="cls-12" cx="892.02" cy="369.7" r="8.57"/><circle class="cls-13" cx="910.32" cy="388.37" r="8.57"/><circle class="cls-12" cx="928.32" cy="406.37" r="8.57"/><circle class="cls-12" cx="766.02" cy="657.7" r="8.57"/><circle class="cls-12" cx="784.32" cy="676.37" r="8.57"/><circle class="cls-13" cx="802.32" cy="694.37" r="8.57"/><circle class="cls-12" cx="766.02" cy="819.7" r="8.57"/><circle class="cls-13" cx="784.32" cy="838.37" r="8.57"/><circle class="cls-12" cx="802.32" cy="856.37" r="8.57"/><circle class="cls-13" cx="550.02" cy="819.7" r="8.57"/><circle class="cls-12" cx="568.32" cy="838.37" r="8.57"/><circle class="cls-12" cx="586.32" cy="856.37" r="8.57"/><circle class="cls-12" cx="766.02" cy="1233.7" r="8.57"/><circle class="cls-13" cx="784.32" cy="1252.37" r="8.57"/><circle class="cls-12" cx="802.32" cy="1270.37" r="8.57"/><circle class="cls-13" cx="1144.02" cy="873.7" r="8.57"/><circle class="cls-12" cx="1162.32" cy="892.37" r="8.57"/><circle class="cls-12" cx="1180.32" cy="910.37" r="8.57"/><circle class="cls-12" cx="1144.02" cy="964.7" r="8.57"/><circle class="cls-12" cx="1162.32" cy="983.37" r="8.57"/><circle class="cls-12" cx="1180.32" cy="1001.37" r="8.57"/><circle class="cls-13" cx="1017.02" cy="1323.7" r="8.57"/><circle class="cls-12" cx="1035.32" cy="1342.37" r="8.57"/><circle class="cls-12" cx="1053.32" cy="1360.37" r="8.57"/><circle class="cls-12" cx="424.02" cy="747.7" r="8.57"/><circle class="cls-12" cx="442.32" cy="766.37" r="8.57"/><circle class="cls-13" cx="460.32" cy="784.37" r="8.57"/><circle class="cls-13" cx="1027.02" cy="459.7" r="8.57"/><circle class="cls-12" cx="1045.32" cy="478.37" r="8.57"/><circle class="cls-12" cx="1063.32" cy="496.37" r="8.57"/><circle class="cls-12" cx="262.02" cy="513.7" r="8.57"/><circle class="cls-13" cx="280.32" cy="532.37" r="8.57"/><circle class="cls-12" cx="298.32" cy="550.37" r="8.57"/><g class="cls-1"><path d="M105.84,197.64c-1.29-21.56,12.55-40,28.59-52.82A222.92,222.92,0,0,1,161.28,127q14.46-8.46,29.67-15.56a355.48,355.48,0,0,1,35.18-14.18c1.81-.63,1-3.53-.8-2.9a364.24,364.24,0,0,0-62.58,28.32c-18.65,10.68-38.33,22.82-50.23,41.27-6.43,10-10.4,21.76-9.68,33.71.11,1.92,3.11,1.94,3,0Z"/></g><g class="cls-1"><path d="M370.81,230.79c.94,11.53,4.71,22.51,7.4,33.69,2.52,10.49,4.14,21.75-.07,32-4,9.76-12.57,16.65-21.21,22.18a336.75,336.75,0,0,1-31.77,17.62,409.4,409.4,0,0,1-38.84,16.84c-1.79.68-1,3.58.8,2.9A401.37,401.37,0,0,0,355.77,323c9-5.49,18-12,23.25-21.39,5.54-9.9,5.43-21.27,3.34-32.12-2.49-12.95-7.47-25.43-8.55-38.65-.16-1.91-3.16-1.93-3,0Z"/></g><g class="cls-1"><path d="M546,287c8.68-5,18.66-7,28.59-7.38,10.3-.43,20.67.5,30.9,1.69a314.35,314.35,0,0,1,97,27.62c1.74.82,3.26-1.77,1.51-2.59a317.18,317.18,0,0,0-94.84-27.59,223.82,223.82,0,0,0-31.78-2.21c-11.38.19-22.92,2.09-32.88,7.87A1.5,1.5,0,0,0,546,287Z"/></g><g class="cls-1"><path d="M1088,121.4a104.22,104.22,0,0,0,41.82,20.26,110,110,0,0,0,46.4.8,101.49,101.49,0,0,0,24.89-8.47c1.73-.86.21-3.44-1.51-2.59a101,101,0,0,1-43.76,10.16,106.35,106.35,0,0,1-43.91-9,98.58,98.58,0,0,1-21.81-13.26c-1.49-1.21-3.62.9-2.12,2.12Z"/></g><g class="cls-1"><path d="M1125.08,311.83c-2.14,6.34-.29,13.35,3.5,18.67,4.1,5.76,10.25,9.58,16.51,12.61a259.78,259.78,0,0,0,43.74,16.2q12.84,3.57,26,5.9c1.89.34,2.7-2.55.8-2.89a279.64,279.64,0,0,1-43.81-11.51q-10.62-3.74-20.91-8.32c-6.15-2.74-12.43-5.75-17.23-10.59s-8-12.36-5.68-19.27c.62-1.83-2.28-2.62-2.89-.8Z"/></g><g class="cls-1"><path d="M1107,477.8c8.59,8,19.33,18.25,17.28,31.26-.94,5.93-5,10.37-9.49,14a99.52,99.52,0,0,1-16.33,10.49c-11.74,6.18-24.3,10.79-36.75,15.29q-19.8,7.15-40,13-22.53,6.51-45.48,11.37c-1.89.4-1.09,3.29.8,2.89a646.44,646.44,0,0,0,83.26-23.57c13-4.65,26.2-9.44,38.53-15.78a108.66,108.66,0,0,0,16.86-10.58c4.72-3.67,9.2-8.08,11-14,2-6.77.28-14.21-3.15-20.21-3.63-6.35-9-11.43-14.35-16.36-1.41-1.32-3.54.8-2.12,2.12Z"/></g><g class="cls-1"><path d="M674.58,626.79a97.6,97.6,0,0,0,22.17,17.72,120.39,120.39,0,0,0,23.85,11,124.44,124.44,0,0,0,52.17,5.82,117.25,117.25,0,0,0,28.79-6.69c1.8-.67,1-3.57-.79-2.89a117.41,117.41,0,0,1-50.59,6.81,120.42,120.42,0,0,1-49-15c-9-5.05-17.53-11.27-24.43-18.93-1.29-1.43-3.41.69-2.12,2.13Z"/></g><g class="cls-1"><path d="M178.37,558.62a294.75,294.75,0,0,0,57.54-28.38A298.52,298.52,0,0,0,286,490.13,289.75,289.75,0,0,0,310,463c1.17-1.51-.93-3.64-2.12-2.12a292.65,292.65,0,0,1-44.51,45.67,294.51,294.51,0,0,1-53,34.82,287.81,287.81,0,0,1-32.82,14.32c-1.8.66-1,3.56.8,2.89Z"/></g><g class="cls-1"><path d="M108.72,386.09a160.86,160.86,0,0,0-31.65,14.37c-9,5.33-18.13,11.43-24.76,19.64a36.31,36.31,0,0,0-6.9,12.7,30.37,30.37,0,0,0,.05,16,64.38,64.38,0,0,0,7,15.77c2.93,5.06,6.06,10,9.3,14.87a299.4,299.4,0,0,0,24.34,31.64c1.28,1.45,3.39-.68,2.12-2.13A292.38,292.38,0,0,1,67,481.9q-4.82-7-9.22-14.19A96.47,96.47,0,0,1,50,453c-2-5-3.2-10.5-2.44-15.93a29.56,29.56,0,0,1,5.38-12.88c5.72-8.15,14.25-14.1,22.59-19.3a157.5,157.5,0,0,1,34-15.93c1.82-.6,1-3.5-.8-2.89Z"/></g><g class="cls-1"><path d="M29.58,826.62c13.1,1.11,24.62,8.77,32.9,18.66,9.5,11.33,14.37,25.63,17.12,40,1.66,8.68,2.57,17.49,3.37,26.29.17,1.91,3.17,1.93,3,0-1.47-16.17-3.3-32.64-9.34-47.85-5.2-13.09-13.71-25-25.68-32.67a46.94,46.94,0,0,0-21.37-7.41c-1.93-.16-1.92,2.84,0,3Z"/></g><g class="cls-1"><path d="M600.13,827.3a115,115,0,0,0,45.57,54.35,111.54,111.54,0,0,0,17.92,9.06c1.8.72,2.58-2.18.8-2.89A111.59,111.59,0,0,1,612,844a107.61,107.61,0,0,1-9-17.52c-.71-1.77-3.61-1-2.9.8Z"/></g><g class="cls-1"><path d="M838.89,813a92,92,0,0,1,23.18,19.48,90.85,90.85,0,0,1,8.83,12.25c2.72,4.53,5.79,9.63,6.42,15,1.13,9.58-7.7,15.83-15.11,19.82a345.27,345.27,0,0,1-31.41,14.44q-18.62,7.73-37.82,13.87c-1.83.59-1,3.49.8,2.89Q811.62,905,829,897.9c11.32-4.62,22.61-9.54,33.48-15.16,7.85-4,16.72-10,17.85-19.54.69-5.75-2-11.26-4.62-16.18a95.12,95.12,0,0,0-35.28-36.65,1.5,1.5,0,0,0-1.51,2.59Z"/></g><g class="cls-1"><path d="M1113.13,812.13a166.14,166.14,0,0,0-29.72,11.71q-7.14,3.64-13.89,8c-4.28,2.75-8.75,5.59-12.46,9.09-3.27,3.09-6.17,7.27-5.43,12s4.78,7.52,8.57,9.67a307.61,307.61,0,0,0,30.21,14.88,336.85,336.85,0,0,0,35.65,13c1.86.56,2.65-2.34.8-2.89a330.22,330.22,0,0,1-59.2-24.37c-2.27-1.2-4.55-2.4-6.75-3.7a16.84,16.84,0,0,1-5-4c-2.81-3.72-1-8,1.83-11.08,3.27-3.59,7.56-6.3,11.59-9s8.43-5.29,12.82-7.63A160.73,160.73,0,0,1,1113.93,815a1.51,1.51,0,0,0-.8-2.9Z"/></g><g class="cls-1"><path d="M1236.22,961.56c4.43,10.63.91,22.4-3.57,32.4a140.21,140.21,0,0,1-16.87,28.25,142.21,142.21,0,0,1-12.53,14.12c-1.38,1.35.74,3.48,2.12,2.12a143.31,143.31,0,0,0,21.38-26.89,140.18,140.18,0,0,0,8-15.11,72.91,72.91,0,0,0,5.71-16.76c1.19-6.33,1.11-12.92-1.4-18.93a1.54,1.54,0,0,0-1.84-1,1.5,1.5,0,0,0-1,1.84Z"/></g><g class="cls-1"><path d="M441.76,1107.88a159.77,159.77,0,0,0,55.07,33.21,166.2,166.2,0,0,0,63.71,9.52,155.8,155.8,0,0,0,35.68-5.91c1.85-.54,1.06-3.44-.8-2.9a156.62,156.62,0,0,1-63,4.73,163,163,0,0,1-59.68-19.69,152.56,152.56,0,0,1-28.89-21.08c-1.41-1.32-3.54.8-2.12,2.12Z"/></g><g class="cls-1"><path d="M64.69,1142.22C82.56,1140.9,97,1129,107.07,1115c11.29-15.67,17-34.27,24.14-52,4.26-10.47,9.17-20.74,16-29.81,1.16-1.55-1.44-3-2.59-1.51-11.84,15.81-17.76,34.89-25,53-6.62,16.47-15.19,32.69-29.32,44-7.33,5.84-16.13,9.85-25.53,10.55-1.91.14-1.93,3.14,0,3Z"/></g><g class="cls-1"><path d="M33.4,1382.68a179,179,0,0,0,33.27-3.93,150.17,150.17,0,0,0,31-9.86,59.83,59.83,0,0,0,22.2-17.12,90,90,0,0,0,12.78-22.8,244.83,244.83,0,0,0,9-28.86,1.51,1.51,0,0,0-2.9-.8c-4.36,16.57-9.08,33.75-19.17,47.87a56.53,56.53,0,0,1-19.8,17.33c-9.35,4.9-19.78,8-30,10.46a175.12,175.12,0,0,1-36.4,4.71c-1.93,0-1.94,3,0,3Z"/></g><g class="cls-1"><path d="M1139.33,1390.93a138.8,138.8,0,0,1-70.15-22.32,137.75,137.75,0,0,1-60-91.38c-.33-1.9-3.23-1.09-2.9.8a141.57,141.57,0,0,0,30.55,65.75,140.73,140.73,0,0,0,102.5,50.15c1.93.07,1.93-2.93,0-3Z"/></g><g class="cls-1"><path d="M694.81,1268.84c14.81-7,24.45-21.06,31.79-35.16a363.61,363.61,0,0,0,22.14-53.15q5.25-15.81,9.15-32c.45-1.87-2.44-2.67-2.89-.8a392,392,0,0,1-17.74,55.36c-3.54,8.75-7.38,17.38-11.58,25.82a125.64,125.64,0,0,1-12.29,20.44c-5.38,7-12,13.13-20.09,16.93-1.75.82-.23,3.41,1.51,2.59Z"/></g><g class="cls-1"><path d="M479,716.52a114.43,114.43,0,0,0-62.5,11.39,113.8,113.8,0,0,0-58.19,70.52,1.5,1.5,0,0,0,2.89.8A111.44,111.44,0,0,1,390.61,750,110.62,110.62,0,0,1,479,719.52c1.92.2,1.91-2.8,0-3Z"/></g><g class="cls-1"><path d="M613.05.44,611.2,2.29a1.56,1.56,0,0,0-.44,1.06,1.27,1.27,0,0,0,.13.58,1.17,1.17,0,0,0,.31.48,1.53,1.53,0,0,0,1.06.44,1.59,1.59,0,0,0,1.07-.44l1.84-1.85a1.5,1.5,0,0,0,.44-1.06,1.06,1.06,0,0,0-.13-.58,1.14,1.14,0,0,0-.31-.48A1.5,1.5,0,0,0,614.11,0a1.58,1.58,0,0,0-1.06.44Z"/></g></g></g></svg>